# xmcd CD database file
#
# Track frame offsets:
#	150
#	21705
#	36638
#	74767
#	114722
#
# Disc length: 2228 seconds
#
# Revision: 0
# Processed by: cddbd v1.5PL3 Copyright (c) Steve Scherf et al.
# Submitted via: CDex 1.51
#
DISCID=5208b205
DTITLE=David Pritchard - City Dreams
DYEAR=1979
DGENRE=Jazz
TTITLE0=Hog Futures
TTITLE1=Black and White
TTITLE2=As Day and Night
TTITLE3=Angel's Flight
TTITLE4=Bright Depths
EXTD=YEAR: 1979
EXTT0=
EXTT1=
EXTT2=
EXTT3=
EXTT4=
PLAYORDER=
